<svg t="1767605419506" class="icon" viewBox="0 0 1024 1024" version="1.1" xmlns="http://www.w3.org/2000/svg" p-id="4101" width="64" height="64"><path d="M588.318118 765.771294l70.656-366.049882a201.185882 201.185882 0 0 0 164.020706-197.571765C822.994824 89.750588 731.858824 0 618.014118 0S412.912941 89.810824 412.912941 202.089412c0 74.089412 38.731294 136.975059 97.942588 172.875294l-86.558117 390.806588C239.736471 794.925176 89.389176 911.721412 30.117647 1024h963.764706c-61.500235-112.278588-216.425412-233.532235-405.564235-258.228706z m120.771764-671.442823c11.384471 0 20.48 8.975059 20.48 20.178823a20.299294 20.299294 0 0 1-20.48 20.239059c-11.444706 0-20.48-9.035294-20.48-20.239059 0-11.203765 6.806588-20.178824 20.48-20.178823z m-29.635764 213.293176c18.251294-13.432471 36.442353-24.696471 54.693647-65.054118 4.577882-11.264 11.444706-26.985412 2.288941-53.910588 0 0-9.155765-20.239059 6.806588-24.69647 0 0 20.48-13.492706 25.057882 47.104 0 0 0 56.139294-31.924705 94.32847-9.035294 11.264-13.613176 15.721412-38.671059 38.189177-4.577882 4.517647-13.673412 13.492706-22.829177 11.203764-9.035294-6.686118-27.286588-24.696471 4.577883-47.164235z" fill="#ff8e00" p-id="4102"></path></svg>